<svg xmlns="http://www.w3.org/2000/svg" viewBox="0 0 200 200">
  <defs>
    <style>
      .dark { fill: #054109; }
      .text { fill: #fff; }
      .cls-3 { fill: #0b5d18; }
    </style>
  </defs>

  <rect class="dark" x="0" y="0" width="200" height="200"/>
  <polygon class="light" points="0 200 200 0 200 200 0 200"/>
  <polygon class="dark" points="40 200 200 40 200 200 40 200"/>
  <polygon class="light" points="80 200 200 80 200 200 80 200"/>
  <polygon class="dark" points="120 200 200 120 200 200 120 200"/>
  <polygon class="light" points="160 200 200 160 200 200 160 200"/>
  <path class="text" d="M105.1,166.2h-8.7v-96.2c0-2.5,0-5,0-7.3,0-2.3,0-4.7.1-7.1,0-2.4.1-5,.3-7.6-.9,1.4-2,2.7-3.2,3.9s-2.7,2.6-4.4,4.1l-12.9,12-5.2-5.5,26.6-24.8h7.3v128.5Z"/>

</svg>