<?xml version="1.0" encoding="utf-8"?>
<!-- Generator: Adobe Illustrator 21.0.2, SVG Export Plug-In . SVG Version: 6.00 Build 0)  -->
<svg version="1.1" id="Layer_1" xmlns="http://www.w3.org/2000/svg" xmlns:xlink="http://www.w3.org/1999/xlink" x="0px" y="0px"
	 viewBox="0 0 480 120" style="enable-background:new 0 0 480 120;" xml:space="preserve">
<style type="text/css">
	.st0{fill:#FFFFFF;}
</style>
<g>
	<g>
		<path class="st0" d="M390.6,47.6c7-12,20.1-20.3,40.2-20.3c31.9,0,46.3,21,46.3,44.5c0,23.6-14.4,44.7-46.3,44.7
			c-20.1,0-33.3-8.4-40.3-20.5l0,0.1v18.2c-6.6,0-13.9,1-20.8,1c-13.8,0-29-2.1-29-25.4V49.4h-14.3l0-0.1c0.5,3.6,0.5,7.4,0.5,11.2
			v34.9c0,6.4,0.3,13.6,3.9,19h-33.1c-0.8-2.3-1.3-5.7-1.2-8h-0.3c-6.9,7.8-16.9,10.1-27.3,10.1c-16.4,0-30-7.9-30-25.7
			c0-26.8,31.4-25.9,48-29c4.4-0.8,8.9-2.1,8.9-7.5c0-5.7-5.4-7.9-10.6-7.9c-10,0-12,5.1-12.1,8.7H243h0.1v2.1
			c-3.3-1.1-6.2-2.1-12.8-2.1c-12.8,0-19.6,7.5-19.6,25.7v33.5h-32.4V79.2h0H117c0.8,9.7,6.4,16.5,16.5,16.5c5.2,0,11-1.9,13.6-6
			h30.3c-6.5,18.3-24.4,26.8-43.7,26.8c-21.7,0-39.1-10.2-45.2-28.7l0,0.3c-1,22.3-23,28.4-43.2,28.4c-20,0-41.9-8-42.4-29.9h30.9
			c0.2,2.9,1.5,5.4,3.9,7.5c1.6,1.5,4.8,2.5,8.7,2.5c4.3,0,11-1.6,11-6.6c0-4.9-2.8-6.4-17.8-9C14.8,76.7,4.9,68.8,4.9,54.3
			c0-21.5,23.1-27,40.1-27c18.3,0,40.4,5.1,41.3,26.8H56.8c-0.2-2.8-1.6-4.9-3.8-6.4c-2-1.6-4.6-2.5-7.2-2.5c-4.6,0-9.8,1-9.8,6.6
			c0,2.5,2,3.6,3.8,4.4c5.4,2.3,17.7,2.9,28.5,6.5c7.6,2.4,14.5,6.3,18,13.2l0,0.1c-0.1-1.3-0.2-2.6-0.2-3.9
			c0-24.7,18-44.8,44.9-44.8c28.9,0,43.7,13.8,47.4,38.5l0-0.4V29.4h31.1V43h0.3c5.2-10.2,12.1-15.7,23.9-15.7
			c3.3,0,6.4,0.5,9.5,1.3v24.9l0,0.3c1.7-22.7,23.9-26.5,43.6-26.5c30.3,0,37.8,9.4,39.7,21l0,0.1V29.4h14.4V3.5h32.4v25.9h17.3
			V47.6z M148.1,62.3c0-7.9-5.9-14.2-14.2-14.2c-9.7,0-15.2,5.1-16.7,14.2H148.1z M295.9,76.2c-3.9,2-8.3,3.1-12.8,4.1
			c-7.2,1.6-11,3.4-11,9.2c0,3.9,4.3,7.9,10.2,7.9c7.4,0,13.1-4.4,13.6-13.3V76.2z M373.2,49.4V79c0,7.9,1.8,11.3,10,11.3
			c1.5,0,3-0.1,4.5-0.2l0,0.1c-2.2-5.7-3.3-11.9-3.3-18.4c0-8,1.7-15.8,5.1-22.5L373.2,49.4z M430.8,50.8c-12.3,0-13.9,11.9-13.9,21
			c0,9,1.6,21.1,13.9,21.1c12.3,0,13.9-12.1,13.9-21.1C444.7,62.8,443.1,50.8,430.8,50.8z"/>
	</g>
</g>
</svg>
