<?xml version="1.0" encoding="utf-8"?>
<!-- Generator: Adobe Illustrator 23.0.3, SVG Export Plug-In . SVG Version: 6.00 Build 0)  -->
<svg version="1.1" id="Layer_1" xmlns="http://www.w3.org/2000/svg" xmlns:xlink="http://www.w3.org/1999/xlink" x="0px" y="0px"
	 viewBox="0 0 780.02429 135.00999" style="enable-background:new 0 0 780.02429 135.00999;" xml:space="preserve">
<style type="text/css">
	.st0{fill:none;}
	.st1{fill:#0068A9;}
	.st2{fill:#FFFFFF;}
	.st3{fill:#0D8B50;}
</style>
<title>Serato DJ Pro - Colour Black</title>
<path class="st0" d="M67.50616,6.77066C33.96304,6.76979,6.77026,33.96115,6.76939,67.50427
	c-0.00087,33.54311,27.19049,60.7359,60.73362,60.73677c33.54169,0.00087,60.73387-27.18826,60.73677-60.72993
	C128.24109,33.96721,101.05006,6.77313,67.50616,6.77066z"/>
<path class="st0" d="M67.50622,0.99924C30.77557,0.9983,0.99874,30.7736,0.9978,67.50423
	c-0.00095,36.73064,29.77436,66.50748,66.505,66.50843c36.72904,0.00093,66.50521-29.77189,66.50842-66.50093
	C134.01259,30.78026,104.2377,1.00201,67.50622,0.99924"/>
<path class="st1" d="M67.50622,61.83484c-3.13153-0.00147-5.67134,2.53594-5.67281,5.66747s2.53595,5.67133,5.66748,5.67281
	c3.13068,0.00147,5.67012-2.53461,5.67281-5.66528C73.17199,64.37926,70.63679,61.8407,67.50622,61.83484"/>
<path class="st2" d="M438.90616,54.55013c5.16913-8.8857,14.87878-15.01652,29.72125-15.01652
	c23.56036,0,34.20288,15.47234,34.20288,32.88058c0,17.4095-10.64252,33.0033-34.20291,33.0033
	c-14.85626,0-24.57465-6.18843-29.72879-15.12422l0.00754,0.07263v13.4763c-4.84357,0-10.27316,0.73-15.35587,0.73
	c-10.15042,0-21.39279-1.57652-21.39279-18.73935V55.85869h-10.56863l0.0213-0.05009c0.29498,2.744,0.41086,5.50429,0.34686,8.26336
	V89.8237c0,4.72084,0.23792,10.03523,2.89886,14.01852h-24.42191c-0.63763-1.90393-0.92404-3.90788-0.84525-5.9142h-0.2467
	c-5.0752,5.79774-12.44824,7.48949-20.19193,7.48949c-12.08759,0-22.11533-5.79774-22.11533-18.97727
	c0-19.82377,23.20724-19.1075,35.41132-21.4003c3.26074-0.59981,6.54156-1.56778,6.54156-5.55857
	c0-4.23748-3.99707-5.799-7.87265-5.799c-7.36676,0-8.82684,3.73785-8.9433,6.40507h-22.19418v1.569
	c-3.00955-1.14507-6.21725-1.67847-9.43542-1.569c-9.41913,0-14.49435,5.55356-14.49435,18.97853v24.77628h-23.94479V77.8588
	h-45.24367c0.60733,7.12884,4.72083,12.1953,12.21033,12.1953c3.8681,0,8.10429-1.43879,10.04274-4.46038h22.362
	c-4.8298,13.54142-18.01685,19.82378-32.28078,19.82378c-15.99951,0-28.85349-7.52579-33.40778-21.18993l0.01378,0.20286
	c-0.70874,16.47661-16.99001,20.98707-31.89008,20.98707c-14.75607,0-30.94968-5.92045-31.31157-22.11406h22.85287
	c0.13187,2.17725,1.18362,4.19563,2.89261,5.55105c1.21465,1.09193,3.52,1.822,6.41258,1.822
	c3.15182,0,8.10432-1.21464,8.10432-4.84356c0-3.62265-2.05363-4.71333-13.18704-6.64424
	c-18.24722-3.1443-25.614-8.94956-25.614-19.70732c0-15.848,17.03886-19.94773,29.61232-19.94773
	c13.53391,0,29.85774,3.74536,30.46506,19.82377H192.3757c-0.12155-1.9237-1.15265-3.67429-2.77617-4.71332
	c-1.51405-1.20045-3.39613-1.84138-5.32816-1.81446c-3.38348,0-7.24405,0.72253-7.24405,4.84356
	c0,1.80819,1.45258,2.65344,2.77615,3.25325c3.98329,1.69925,13.05682,2.17634,21.02339,4.84356
	c5.60365,1.77188,10.72144,4.63444,13.28101,9.71717l0.00751,0.07263c-0.07262-0.95419-0.10893-1.92299-0.10895-2.90638
	c0-18.25474,13.30226-33.11975,33.13353-33.11975c21.31264,0,32.25948,10.18048,34.97676,28.4202l-0.01376-0.29678V41.11014
	h22.97559v10.02771h0.23914c3.86685-7.5045,8.94205-11.60425,17.64618-11.60425c2.37015,0.01582,4.72803,0.34165,7.01364,0.96921
	v18.39876l0.01501,0.20286c1.28601-16.77964,17.62488-19.57082,32.20691-19.57082c22.40457,0,27.93561,6.941,29.30176,15.50113
	l0.00754,0.06512V41.11014h10.6488v-19.1075h23.93851v19.1075h12.81015L438.90616,54.55013z M259.83484,65.40179
	c0.12158-5.68428-4.38783-10.39087-10.0721-10.51245c-0.1488-0.00319-0.29767-0.00314-0.44647,0.00013
	c-7.13635,0-11.24237,3.74536-12.33429,10.51233H259.83484z M368.9877,75.68246c-3.01398,1.38396-6.1842,2.39851-9.44168,3.02159
	c-5.31314,1.20838-8.0968,2.53823-8.0968,6.767c0,2.89887,3.14557,5.80525,7.50452,5.80525c5.4296,0,9.65829-3.267,10.034-9.79605
	L368.9877,75.68246z M426.09604,55.85869v21.8761c0,5.80651,1.32233,8.336,7.36551,8.336c1.12201,0,2.2352-0.04258,3.35468-0.12272
	l0.02255,0.03631c-1.63995-4.33459-2.46115-8.93593-2.42178-13.57022c-0.07916-5.75191,1.22192-11.43898,3.79419-16.5843
	L426.09604,55.85869z M468.62744,56.9431c-9.07352,0-10.28818,8.82685-10.28818,15.47108
	c0,6.65175,1.21466,15.59505,10.28818,15.59505c9.06601,0,10.27313-8.9433,10.27313-15.59505
	C478.90057,65.76994,477.69342,56.9431,468.62744,56.9431"/>
<path class="st2" d="M67.66846,5.52138C33.16722,5.52101,5.19815,33.48948,5.19778,67.99072s27.9681,62.4703,62.46933,62.47066
	c34.49884,0.00037,62.46692-27.96436,62.47067-62.4632c0.00275-34.50223-27.9646-62.47404-62.46683-62.47679
	C67.67012,5.52138,67.66929,5.52138,67.66846,5.52138"/>
<path class="st3" d="M67.66717,62.18518c3.13947,0.00073,5.68391,2.54638,5.68318,5.68584
	c-0.00073,3.13947-2.54637,5.68391-5.68584,5.68318c-3.13947-0.00073-5.68392-2.54637-5.68319-5.68584
	c0-0.00089,0-0.00178,0-0.00266c0.00133-3.1386,2.54675-5.68186,5.68534-5.68052
	C67.66684,62.18518,67.667,62.18518,67.66717,62.18518 M103.86537,77.96648c0.0011,1.83846-1.48836,3.3297-3.32681,3.33081
	s-3.32971-1.48836-3.33081-3.32681v-2.45009c-0.00386-2.0422-1.66253-3.69459-3.70473-3.69072
	c-2.03673,0.00385-3.68687,1.65399-3.69072,3.69072V97.8968c0.00072,2.26943-1.83842,4.10976-4.10786,4.11049
	c-2.26943,0.00072-4.10976-1.83842-4.11048-4.10786c0-0.00176,0-0.00353,0-0.00529v-2.817
	c-0.00198-2.52163-2.04777-4.56422-4.5694-4.56224c-2.51884,0.00198-4.56026,2.0434-4.56224,4.56224v3.0842
	c-0.0133,0-0.03057,0.00665-0.04121,0.00665v7.08836c0.00352,2.60974-2.10923,4.7282-4.71897,4.73172
	c-2.60973,0.00352-4.7282-2.10924-4.73172-4.71896c-0.00001-0.00426-0.00001-0.0085,0-0.01276v-7.07773h-0.0133v-3.10415
	c-0.00198-2.52163-2.04777-4.56422-4.5694-4.56224c-2.51884,0.00198-4.56026,2.0434-4.56224,4.56224v2.708
	c-0.04485,2.26701-1.91899,4.06843-4.186,4.02357c-2.23739-0.04427-4.02721-1.87216-4.02438-4.10999v-22.1757
	c-0.00386-2.04256-1.66282-3.69525-3.70538-3.69139c-2.0371,0.00385-3.68754,1.65429-3.69139,3.69139v0.88538
	c-0.01728-0.07045-0.04387-0.13692-0.06514-0.20473v1.53678c-0.00075,1.83809-1.49142,3.32754-3.32951,3.32679
	c-1.83703-0.00075-3.32604-1.48976-3.32679-3.32679V57.53761c0.00102-1.83809,1.49192-3.32732,3.33-3.3263
	c1.83716,0.00102,3.32601,1.49047,3.3263,3.32763v2.67741c0.00195,2.04366,1.66025,3.6988,3.70391,3.69685
	c2.0409-0.00195,3.6949-1.65594,3.69685-3.69685c-0.00266-0.38818-0.00266-6.71346-0.00266-13.57848
	c0.02393-0.02393,0.04121-0.05052,0.06381-0.07445v-8.51746c-0.00188-2.26873,1.83575-4.10943,4.10448-4.11132
	c2.25843-0.00188,4.09482,1.81971,4.11121,4.07808v2.6495c0.00368,2.52126,2.05056,4.56217,4.57182,4.55849
	c2.51606-0.00367,4.55481-2.04243,4.55849-4.55849v-3.10414h0.00658c0.00266-6.49943,0-6.81717,0.00266-7.07374
	c-0.00163-2.60899,2.11206-4.72532,4.72106-4.72695c2.60899-0.00163,4.72532,2.11206,4.72694,4.72105c0,0.00196,0,0.00393,0,0.00589
	c0.00266,0.24462,0.00266,0.569,0.00266,7.083l0.04121,0.01064v3.0842c0.00198,2.52163,2.04777,4.56422,4.5694,4.56224
	c2.51884-0.00198,4.56026-2.0434,4.56224-4.56224v-2.81563c-0.00163-2.26943,1.83678-4.1105,4.10621-4.11213
	s4.1105,1.83678,4.11213,4.10621c0,0.00197,0,0.00395,0,0.00592v22.3698c-0.00387,2.0422,1.64853,3.70086,3.69072,3.70473
	c2.0422,0.00387,3.70087-1.64853,3.70473-3.69073c0.00002-0.00466,0.00002-0.00933,0-0.014v-2.44477
	c0-1.83846,1.49036-3.32881,3.32881-3.32881s3.32881,1.49036,3.32881,3.32881L103.86537,77.96648z M67.66717,1.19901
	C30.84597,1.19974,0.99707,31.04981,0.9978,67.87101c0.00073,36.8212,29.8508,66.67008,66.67199,66.66935
	c36.82121-0.00072,66.6701-29.85078,66.66936-66.67198c0-0.00089,0-0.00179,0-0.00268
	c-0.00092-36.81992-29.85011-66.66761-66.67003-66.66669C67.66847,1.19901,67.66782,1.19901,67.66717,1.19901"/>
<path class="st2" d="M548.22345,42.17418c9.45312,0.23242,16.57257,2.88607,21.3584,7.96094
	c4.78516,5.0752,7.17773,12.77474,7.17773,23.09864c0,10.32422-2.39258,18.02344-7.17773,23.09766
	c-4.78467,5.07618-11.90411,7.72983-21.3584,7.96094h-21.48871V42.17418H548.22345z M545.26544,99.24645
	c3.8913,0.07447,7.77319-0.40895,11.52734-1.43555c2.99585-0.82794,5.73413-2.39896,7.96094-4.56738
	c2.19128-2.2675,3.77686-5.04983,4.61084-8.09082c1.06036-3.88183,1.55847-7.89569,1.479-11.91895
	c0.07947-4.02326-0.41864-8.03712-1.479-11.91896c-0.83374-3.04138-2.41937-5.82407-4.61084-8.0918
	c-2.22681-2.16842-4.96509-3.73944-7.96094-4.56738c-3.75415-1.0266-7.63605-1.51002-11.52734-1.43555H532.6507v52.02637
	L545.26544,99.24645z"/>
<path class="st2" d="M617.30109,42.17418v44.8047c0.04871,2.78545-0.27307,5.56501-0.95697,8.26563
	c-0.54034,2.1394-1.60126,4.112-3.08838,5.74219c-1.54028,1.58212-3.45563,2.74914-5.56787,3.39259
	c-2.75104,0.81779-5.61322,1.19937-8.48242,1.13086c-3.00134,0.11513-5.98615-0.49663-8.7002-1.7832
	c-2.14404-1.08304-3.97211-2.70135-5.30713-4.69824c-1.31763-2.04744-2.20551-4.34122-2.60986-6.74219
	c-0.46979-2.61268-0.70264-5.26244-0.6958-7.917h5.91602c0.05713,1.33496,0.14404,2.93001,0.26074,4.78516
	c0.10846,1.82428,0.5202,3.61773,1.21826,5.30664c0.72803,1.72405,1.91705,3.21414,3.43652,4.30664
	c1.59424,1.18945,3.92871,1.78385,7.00342,1.7832c1.95441,0.06085,3.90259-0.24897,5.7417-0.91309
	c1.45599-0.5675,2.70172-1.57005,3.56738-2.87109c0.95129-1.52193,1.57349-3.2261,1.82666-5.00293
	c0.37708-2.4171,0.5517-4.86147,0.52197-7.30762V42.17418H617.30109z"/>
<path class="st2" d="M659.93146,42.17418v57.07228h34.7998v5.0459h-40.71582V42.17418H659.93146z"/>
<path class="st2" d="M705.25714,42.17418v8.78711h-5.48102v-8.78711H705.25714z M705.25714,59.40074v44.8916h-5.48102V59.40073
	L705.25714,59.40074z"/>
<path class="st2" d="M733.61896,59.40073v4.61036h-9.13525v30.27637c-0.06689,1.44387,0.18567,2.88472,0.73975,4.21973
	c0.49176,1.01467,1.72418,1.5801,3.69727,1.69629c1.5697-0.00021,3.13818-0.08726,4.69824-0.26074v4.61035
	c-0.81293,0-1.62494,0.02898-2.43597,0.08691c-0.81299,0.05762-1.625,0.08659-2.43597,0.08691
	c-3.6543,0-6.20636-0.71028-7.65625-2.13086c-1.4502-1.4209-2.14618-4.04556-2.08789-7.874V64.01109h-7.83014v-4.61036h7.83002
	V45.91539h5.48102v13.48534H733.61896z"/>
<path class="st2" d="M745.58038,89.45834c0.51874,2.04949,1.41888,3.98294,2.65332,5.69922
	c1.23199,1.69551,2.80194,3.11733,4.61084,4.17578c2.04132,1.14972,4.35736,1.72131,6.69922,1.65332
	c4.00201,0,7.13397-1.04427,9.396-3.13281c2.35913-2.25673,3.99445-5.16362,4.69824-8.35156h5.48102
	c-1.16113,5.10449-3.29266,9.04849-6.39453,11.832c-3.10352,2.78419-7.49707,4.17611-13.18066,4.17577
	c-3.16162,0.0787-6.29993-0.5607-9.17871-1.87012c-2.48901-1.17174-4.65417-2.93374-6.30713-5.13281
	c-1.67084-2.27243-2.89606-4.84083-3.61084-7.56934c-0.79504-2.96469-1.19-6.0224-1.17432-9.0918
	c-0.00232-2.93973,0.3927-5.86629,1.17432-8.7002c0.73254-2.73521,1.95605-5.31454,3.61084-7.6123
	c1.65729-2.26113,3.81616-4.1073,6.30713-5.39355c2.84564-1.42392,5.99774-2.12618,9.17871-2.04492
	c6.1662-0.23808,12.01361,2.74347,15.44238,7.874c1.64178,2.45811,2.80743,5.20258,3.43652,8.09082
	c0.69531,3.03699,0.98785,6.15229,0.87012,9.26563h-34.53912C744.7663,85.39668,745.04407,87.45774,745.58038,89.45834z
	 M772.72437,72.71127c-0.63251-1.85121-1.59003-3.5748-2.82764-5.08984c-1.21973-1.47955-2.7298-2.69334-4.43701-3.56641
	c-1.83417-0.92064-3.86401-1.38338-5.91602-1.34864c-2.08044-0.04124-4.14001,0.42147-6.00293,1.34864
	c-1.70734,0.87282-3.21753,2.08664-4.43701,3.56641c-1.2511,1.53671-2.23621,3.27193-2.91455,5.13379
	c-0.72046,1.92013-1.20258,3.92142-1.43555,5.959h29.05811c-0.05096-2.04506-0.41772-4.06995-1.08734-6.00295H772.72437z"/>
</svg>
